<svg width="122" height="121" viewBox="0 0 122 121" fill="none" xmlns="http://www.w3.org/2000/svg">
<g clip-path="url(#clip0_78_218)">
<path d="M19.5827 28.0806C19.1642 27.9783 18.8384 27.9032 18.5125 27.8145C16.1766 27.1697 14.7222 25.017 14.9623 22.5674C15.1853 20.2714 17.1336 18.3677 19.5347 18.3575C28.923 18.3131 38.3113 18.3131 47.6996 18.3575C50.111 18.3677 52.0525 20.2578 52.2789 22.5572C52.5224 25.0272 51.1126 27.2345 48.7389 27.777C47.7785 27.9953 47.6447 28.4013 47.6482 29.2371C47.6722 38.2575 47.679 47.2812 47.6413 56.3015C47.6379 57.1613 47.9397 57.54 48.6738 57.9357C61.3207 64.7624 67.6253 75.3759 67.1108 89.6229C66.5311 105.76 53.3662 119.26 37.1519 120.836C18.9927 122.6 3.15574 110.366 0.367031 92.4238C-1.7871 78.5692 5.70434 64.2813 18.461 58.0005C19.3117 57.5809 19.6136 57.134 19.6101 56.1855C19.569 47.2505 19.5861 38.3121 19.5861 29.377V28.0874L19.5827 28.0806ZM23.1878 28.0874V29.5851C23.1878 38.8204 23.1432 48.0556 23.2255 57.2909C23.2427 59.0957 22.6321 60.0373 20.9822 60.781C8.96984 66.2123 1.98606 79.1219 3.95839 92.069C6.48641 108.673 22.1142 119.829 38.8464 117.005C51.2121 114.917 62.0376 104.692 63.4646 90.5986C64.6891 78.4907 58.1856 66.0827 45.9845 60.6172C44.5473 59.9759 44.0328 59.1264 44.0396 57.5946C44.0911 48.274 44.0671 38.9534 44.0671 29.6363C44.0671 29.1382 44.0671 28.6435 44.0671 28.0908H23.1947L23.1878 28.0874ZM33.7286 21.8987C31.2898 21.8987 28.8475 21.8987 26.4087 21.8987C24.3094 21.8987 22.2136 21.9056 20.1144 21.8987C19.2397 21.8987 18.5502 22.158 18.5571 23.1576C18.564 24.147 19.2706 24.4131 20.1247 24.4472C20.3373 24.4541 20.5534 24.4472 20.7661 24.4472C29.3723 24.4472 37.9751 24.4472 46.5814 24.4472C46.9656 24.4472 47.4561 24.5462 47.7065 24.3517C48.1215 24.0344 48.6532 23.5056 48.636 23.086C48.6189 22.6834 48.022 22.2194 47.5761 21.9465C47.2948 21.7725 46.8249 21.8953 46.4407 21.8953C42.2011 21.8953 37.9649 21.8953 33.7252 21.8953L33.7286 21.8987Z" fill="white"/>
<path d="M91.5815 51.0453C92.8918 54.0168 94.2158 56.9201 95.4404 59.8609C95.7937 60.707 96.3563 60.5535 96.9874 60.5364C100.366 60.4477 103.354 62.3343 104.64 65.3536C105.933 68.3899 105.199 71.8527 102.781 74.1488C99.6526 77.1169 94.7201 77.0384 91.6569 73.9714C88.6418 70.9521 88.5492 66.0632 91.554 63.0439C92.3155 62.2797 92.4253 61.7373 91.9725 60.7786C90.6828 58.0493 89.5165 55.2654 88.2714 52.4338C83.9631 53.2458 80.2689 52.1847 77.216 48.8414C75.964 49.5714 74.6983 50.2606 73.5012 51.0521C73.2748 51.2022 73.2028 51.7788 73.2611 52.1233C73.9814 56.3879 71.3059 60.4375 67.1794 61.2733C62.9226 62.1364 58.8956 59.6323 57.8323 55.4633C57.0159 52.2666 58.3948 48.8379 61.2281 47.023C64.0614 45.2114 67.7111 45.3513 70.3455 47.4801C71.0315 48.0328 71.4946 48.1181 72.2252 47.62C73.2062 46.9479 74.273 46.3986 75.3946 45.747C74.3244 42.7414 74.4822 39.804 75.9057 36.8939C73.9917 35.461 72.1326 34.0247 70.2082 32.6873C69.9476 32.5065 69.2718 32.7044 68.9082 32.9227C64.449 35.5974 58.779 33.6221 57.0982 28.781C55.98 25.5673 57.0296 22.0635 59.7326 19.9688C62.3601 17.9321 66.0646 17.7512 68.8876 19.5185C71.7827 21.33 73.2679 24.7519 72.3315 28.0202C71.9713 29.2757 72.3315 29.8386 73.292 30.4868C74.9144 31.5888 76.4477 32.817 78.0839 34.0417C80.7457 31.6468 83.8534 30.77 87.3658 31.1794C87.6197 31.2101 88.0759 30.8996 88.1822 30.6403C90.3947 25.2568 92.5694 19.863 94.7372 14.5C91.0601 10.7949 90.3844 7.12404 92.6757 3.59983C94.6961 0.491845 98.651 -0.797748 102.16 0.512315C105.607 1.7985 107.782 5.3807 107.271 8.91855C106.65 13.207 103.707 15.4518 98.0645 15.8851C95.8898 21.2516 93.6945 26.6453 91.5472 32.0596C91.4443 32.3155 91.6741 32.8033 91.8902 33.066C93.0359 34.4716 94.209 35.8601 95.4233 37.2077C95.6702 37.4841 96.1847 37.7604 96.5037 37.6956C99.6458 37.061 102.771 36.3548 105.906 35.6657C106.094 34.8469 106.221 34.052 106.468 33.2946C107.614 29.8011 111.075 27.5392 114.708 27.8769C118.436 28.2249 121.362 31.0122 121.928 34.7479C122.449 38.2005 120.295 41.8134 116.941 43.1166C113.497 44.454 109.531 43.3248 107.521 40.2304C106.88 39.241 106.3 39.2172 105.336 39.4423C102.428 40.1212 99.4983 40.7251 96.6135 41.3494C95.9515 46.5215 95.3135 47.7599 91.5884 51.0418L91.5815 51.0453ZM85.5547 49.1109C89.5714 49.1313 92.8506 45.9347 92.8918 41.9567C92.933 37.9856 89.6846 34.7104 85.6782 34.6797C81.6306 34.649 78.3308 37.8048 78.276 41.7656C78.2176 45.8016 81.4763 49.0904 85.5547 49.1109ZM69.7658 53.621C69.7555 51.2022 67.766 49.2576 65.334 49.2917C62.9775 49.3258 61.0257 51.2943 61.0326 53.6347C61.0395 56.0262 63.0633 57.9947 65.4815 57.964C67.8449 57.9333 69.7761 55.9751 69.7658 53.621ZM114.001 40.094C116.371 40.1076 118.337 38.1971 118.374 35.8431C118.412 33.4447 116.426 31.4318 114.022 31.4318C111.655 31.4318 109.689 33.3458 109.645 35.6964C109.6 38.0845 111.579 40.0837 114.004 40.0974L114.001 40.094ZM68.994 26.1814C68.97 23.7523 67.0045 21.8691 64.5279 21.91C62.1474 21.9509 60.2368 23.8956 60.2608 26.2598C60.2848 28.6514 62.3429 30.6301 64.7372 30.5653C67.1074 30.5005 69.0146 28.5354 68.994 26.1814ZM99.2719 12.2517C101.697 12.2892 103.707 10.331 103.714 7.92918C103.717 5.57516 101.793 3.63054 99.4194 3.58619C97.0526 3.54184 95.0459 5.4387 94.9808 7.78248C94.9156 10.1945 96.8571 12.2176 99.2719 12.2551V12.2517ZM97.1829 72.7773C99.6046 72.8353 101.628 70.8941 101.656 68.4855C101.683 66.1383 99.7555 64.1561 97.3956 64.1084C94.967 64.0606 92.9433 66.0018 92.9193 68.4002C92.8952 70.7508 94.8161 72.7193 97.1795 72.7773H97.1829Z" fill="white"/>
<path d="M12.5132 85.9532C19.4455 86.0999 26.2235 87.1951 32.8917 89.0817C39.9955 91.0911 46.9827 90.0881 53.891 88.0207C55.3214 87.5908 56.7175 87.0415 58.1273 86.5434C59.9967 85.8782 61.0292 86.6083 61.0086 88.5938C60.8919 100.876 51.1812 112.212 38.891 114.413C23.4073 117.183 9.34372 107.477 6.57902 92.0839C6.35606 90.8353 6.28746 89.5491 6.23944 88.2765C6.18112 86.6287 6.7814 86.0044 8.40043 85.9601C9.76906 85.9225 11.1411 85.9532 12.5132 85.9532ZM57.0502 90.8046C55.9388 91.1355 54.848 91.4801 53.747 91.7871C46.674 93.7556 39.529 94.6153 32.3257 92.623C25.9834 90.866 19.5553 89.7538 12.9762 89.5184C11.9781 89.4843 10.9765 89.515 9.97487 89.515C10.5134 100.616 20.4265 111.899 34.8194 111.329C46.0497 110.882 57.5407 100.33 57.0502 90.808V90.8046Z" fill="white"/>
<path d="M19.8503 74.5298C19.864 71.8346 22.0524 69.6887 24.7691 69.7091C27.4549 69.7296 29.6571 71.9642 29.609 74.6253C29.561 77.2352 27.3726 79.3811 24.7348 79.3981C22.0627 79.4186 19.8366 77.2011 19.8503 74.5298ZM24.6696 76.3823C25.3042 75.5362 25.98 75.0244 25.9182 74.6253C25.8393 74.134 25.2047 73.4994 24.7039 73.3834C24.3918 73.3118 23.5686 74.0692 23.5445 74.4854C23.5171 74.9733 24.1071 75.4952 24.6696 76.3857V76.3823Z" fill="white"/>
<path d="M41.7929 63.3298C41.7758 66.0318 39.5736 68.1914 36.8741 68.1505C34.1951 68.1095 32.0136 65.8681 32.0582 63.1968C32.1028 60.5767 34.2878 58.458 36.9393 58.4649C39.6731 58.4717 41.8101 60.6142 41.7929 63.3298ZM37.1657 61.856C36.9701 61.856 36.778 61.8594 36.5825 61.8628C36.2807 62.3746 35.7078 62.917 35.7627 63.3878C35.8142 63.8211 36.5036 64.442 36.9804 64.5068C37.7351 64.6126 38.3113 63.9917 38.1364 63.2104C38.0266 62.7123 37.5018 62.3029 37.1657 61.856Z" fill="white"/>
<path d="M37.6493 41.7472C37.6561 44.4594 35.5088 46.5951 32.775 46.5985C30.1475 46.5985 27.9419 44.4492 27.9008 41.8427C27.8596 39.1782 30.0412 36.9709 32.7476 36.9436C35.4848 36.9163 37.6424 39.0315 37.6493 41.7506V41.7472ZM34.2225 42.0406C34.2294 41.8461 34.2328 41.6551 34.2397 41.4606C33.7423 41.1501 33.2209 40.5702 32.751 40.6111C32.312 40.6486 31.6602 41.2934 31.5779 41.754C31.4441 42.4875 32.0341 43.0948 32.8265 42.9549C33.3307 42.8662 33.7595 42.3613 34.2225 42.044V42.0406Z" fill="white"/>
</g>
<defs>
<clipPath id="clip0_78_218">
<rect width="122" height="121" fill="white"/>
</clipPath>
</defs>
</svg>
