<svg width="279" height="134" viewBox="0 0 279 134" fill="none" xmlns="http://www.w3.org/2000/svg">
<g clip-path="url(#clip0_2008_219)">
<path fill-rule="evenodd" clip-rule="evenodd" d="M228.518 81.537C229.644 81.537 230.512 80.7249 230.512 79.6853V48.0126C230.351 47.1355 229.547 46.4208 228.518 46.4208C227.489 46.4208 226.685 47.1355 226.525 48.0126V79.6853C226.525 80.7249 227.393 81.537 228.518 81.537ZM232.184 40.5736C238.454 40.5736 238.84 45.6412 238.84 48.9222V79.0032C238.84 82.2841 238.454 87.3518 232.184 87.3518H224.788C218.518 87.3518 218.133 82.2841 218.133 79.0032V48.9222C218.133 45.6412 218.518 40.5736 224.788 40.5736H232.184ZM92.9571 40.5736H110.031V46.3559H101.928V87.3193H92.9571V40.5736ZM115.979 40.5736H130.031L134.725 87.3193H125.979L125.175 74.8776H120.963L120.159 87.3193H111.414L115.947 40.5736H115.979ZM124.725 69.7775L123.214 46.3559H122.732L121.22 69.7775H124.725ZM147.426 70.9794V79.8153C147.426 81.0172 148.294 81.3421 148.776 81.3421C149.58 81.3421 150.127 80.6274 150.127 79.8153V68.9004C150.127 67.471 149.902 65.8468 146.558 65.8468H142.989V60.7142H146.719C149.259 60.7142 150.223 60.0645 150.223 57.2708V47.9801C150.223 47.168 149.677 46.4533 148.873 46.4533C148.326 46.4533 147.522 46.7782 147.522 47.9801V55.6141H138.551V48.9547C138.551 45.6737 138.937 40.6061 145.207 40.6061H152.603C158.873 40.6061 159.259 45.6737 159.259 48.9547V56.4911C159.259 61.5588 155.85 62.8907 153.149 62.8257V63.313C159.098 63.1505 159.259 67.9583 159.259 69.6475V79.0356C159.259 82.3166 158.873 87.3842 152.603 87.3842H145.207C139.002 87.3842 138.551 82.3166 138.551 79.0356V71.0119H147.426V70.9794ZM165.046 40.5736H185.689V87.3193H177.361V46.3559H173.31V87.3193H164.982V40.5736H165.046ZM192.184 40.5736H206.236C212.506 40.5736 213.47 45.6412 213.47 48.9222V63.0206C213.47 66.3016 212.506 71.3692 206.236 71.3692H201.155V87.2543H192.184V40.5736ZM203.47 66.2366C204.435 66.2366 205.142 65.3595 205.142 63.8977V48.6623C205.142 47.233 204.435 46.3234 203.47 46.3234H201.091V66.2041H203.47V66.2366ZM267.296 40.5736H278.871V87.3193H269.997V57.9855H269.675L265.077 87.3193H257.939L253.341 57.9855H253.02V87.3193H244.049V40.5736H255.721L261.508 73.4482L267.296 40.5736ZM73.922 45.3164C73.9863 40.5736 73.5361 32.5823 71.3175 24.1362C69.0024 15.7227 64.5652 7.69891 63.8578 6.72436C63.2147 7.76388 59.6456 14.2608 56.5588 24.3636C55.755 27.4172 54.2437 33.9792 54.0187 40.4761C53.6971 48.24 54.7261 56.0364 55.2084 58.2128C55.2084 55.6465 55.2727 46.9731 56.8804 39.8589C58.4559 32.7122 61.4784 24.5585 63.9542 20.368C66.5587 24.7859 69.9992 34.239 71.1889 39.9239C72.3786 45.6087 73.0217 52.8204 72.7001 57.953C73.3432 54.9968 73.8898 49.9292 73.9541 45.2839L73.922 45.3164ZM63.8256 81.5695C65.2404 78.9382 67.7163 72.9935 67.5555 65.5219C67.2339 57.888 64.6938 52.3006 63.8899 51.0012C63.0218 52.3656 59.9993 58.7651 60.0958 66.2366C60.3208 73.9355 62.4752 78.9057 63.8256 81.537V81.5695ZM74.7901 24.2337C77.5554 36.6754 77.5554 44.2768 76.3014 53.0153C74.0827 68.7379 67.0089 80.6924 63.9221 84.688C61.8642 81.9593 58.6167 76.3394 56.4624 71.2068C56.4624 71.2068 52.411 61.3314 51.3177 51.6509C50.1923 42.0354 50.6747 32.2575 53.8579 21.1801C56.7196 11.2398 62.3465 2.33891 63.9542 0C64.9189 1.59176 71.9606 11.6945 74.8223 24.2012L74.7901 24.2337ZM80.5778 87.2543V119.252C72.0892 128.315 60.0315 134 46.5911 134C20.8679 134 0 113.08 0 87.3193C0 61.5588 20.8679 40.6385 46.5911 40.6385V75.6897C39.9352 75.6897 33.1829 78.256 28.1026 83.3886C26.9129 84.5905 25.7875 85.8899 24.9193 87.3193C18.1027 97.5195 19.1316 111.456 28.1026 120.421C33.1829 125.489 39.9352 128.12 46.5911 128.12C53.247 128.12 59.935 125.554 65.0153 120.486C65.0153 120.486 65.0796 120.486 65.0796 120.421L65.1439 120.356C70.2243 115.224 70.2243 106.973 65.1439 101.84C60.0636 96.7074 51.7357 96.7074 46.6554 101.84C46.6554 101.84 46.5911 101.84 46.5911 101.905V87.2218H80.5778V87.2543ZM270.672 120.844C270.672 116.751 268.936 115.711 264.338 115.711H263.534V107.85H258.839V128.153H263.534C268.614 128.153 270.672 127.341 270.672 122.955V120.876V120.844ZM231.316 107.85H219.419V111.683H223.213V128.218H227.65V111.683H231.219L231.283 107.85H231.316ZM195.046 114.574C195.046 110.416 193.052 109.376 188.294 109.376V107.85H183.696V109.376C178.937 109.376 176.943 110.416 176.943 114.574V120.909C176.943 125.002 179.001 126.106 183.696 126.106V128.12H188.294V126.106C192.988 126.106 195.046 124.969 195.046 120.909V114.574ZM152.346 107.85H140.995V128.218H152.346V124.384H145.915V119.577H151.702V115.744H145.915V111.748H152.346V107.915V107.85ZM113.214 107.85H108.52V115.711H106.044V107.85H101.349V128.153H106.044V119.252H108.52V128.153H113.214V107.85ZM279.032 134H92.9571V102.815H278.936L279 134H279.032ZM181.573 114.444C181.573 113.242 181.959 112.917 182.988 112.917H183.696V122.37H182.988C181.959 122.37 181.573 122.143 181.573 120.941V114.444ZM264.595 119.349C265.624 119.349 265.945 119.577 265.945 120.779V123.28C265.945 124.417 265.624 124.709 264.595 124.709H263.566V119.414H264.595V119.349ZM189.033 113.015C190.062 113.015 190.448 113.242 190.448 114.444V121.006C190.448 122.208 190.062 122.533 189.033 122.533H188.326V113.08H189.033V113.015Z" fill="white"/>
</g>
<defs>
<clipPath id="clip0_2008_219">
<rect width="279" height="134" fill="white"/>
</clipPath>
</defs>
</svg>
