<svg width="265" height="64" viewBox="0 0 265 64" fill="none" xmlns="http://www.w3.org/2000/svg">
<g clip-path="url(#clip0_2043_1318)">
<path d="M22.8316 62.7599C19.9103 62.7599 17.538 62.3362 16.2224 62.0365C11.0945 60.8687 6.08066 55.6189 5.86312 55.3916L4.70288 54.1618L5.93563 53.0044C6.47431 52.498 11.2396 48.0543 13.6947 46.8245C18.7293 44.3029 27.0271 44.799 27.3793 44.8196L27.1617 48.2093C27.0789 48.2093 19.4337 47.7546 15.2382 49.8627C13.933 50.5138 11.3432 52.715 9.60281 54.2755C11.2292 55.7429 14.192 58.1095 16.989 58.7399C20.4075 59.5149 32.1756 61.2821 39.9968 51.3095C45.3733 44.4579 44.2338 36.7176 42.9596 32.4909C41.2296 34.7127 38.1529 37.4513 32.9422 38.7948C31.3054 39.2185 29.5858 39.3942 27.7522 39.5698C23.5256 40.0039 18.7293 40.4896 13.0835 44.1892C11.0427 45.5224 6.64006 49.7904 5.11725 51.3199L3.54264 52.901L2.42384 50.9788C2.23738 50.6481 -2.2171 42.7838 1.42936 30.331C4.4439 20.0071 21.5056 2.02551 22.2204 1.27111L23.422 0L24.6962 1.27111C26.7784 3.28629 37.407 13.8066 41.789 22.4046L38.733 23.9341C35.1591 16.9068 26.737 8.13305 23.4946 4.87776C19.5477 9.16648 7.04407 23.2211 4.68216 31.2818C2.49636 38.7638 3.553 44.3236 4.47498 47.1655C6.39144 45.3157 9.3749 42.5461 11.1671 41.3783C17.5173 37.224 22.987 36.6659 27.3689 36.2215C29.0678 36.0459 30.6632 35.8908 32.0513 35.5291C39.5825 33.5966 41.5611 28.2745 41.644 28.0471L42.9803 24.2958L44.7828 27.8405C45.0729 28.4088 51.7235 41.864 42.6592 53.4074C36.6197 61.0961 28.6224 62.7806 22.8005 62.7806L22.8316 62.7599Z" fill="url(#paint0_linear_2043_1318)"/>
<path d="M81.5273 12.8361C84.5936 14.5516 86.997 16.9181 88.7373 19.9564C90.4777 22.9946 91.3479 26.4256 91.3479 30.2493C91.3479 34.073 90.4777 37.5143 88.7373 40.5422C86.9866 43.5805 84.5936 45.947 81.5273 47.6625C78.461 49.378 75.0113 50.2254 71.1473 50.2254C67.6977 50.2254 64.5899 49.6363 61.824 48.4582C59.0581 47.2801 56.748 45.575 54.8937 43.3221L60.6223 38.0206C63.3675 41.0796 66.7239 42.5987 70.6915 42.5987C73.5507 42.5987 75.9747 41.772 77.9534 40.1082C79.932 38.4547 81.2269 36.2225 81.8174 33.4322H66.0091V26.591H81.7034C81.0715 23.9454 79.7766 21.8269 77.8083 20.2457C75.8401 18.6646 73.4678 17.8689 70.6812 17.8689C66.7136 17.8689 63.3572 19.3983 60.612 22.4469L54.8833 17.1455C56.7376 14.9029 59.0477 13.1874 61.8136 12.0093C64.5796 10.8312 67.6873 10.2422 71.137 10.2422C75.001 10.2422 78.4506 11.0999 81.5169 12.8051L81.5273 12.8361Z" fill="white"/>
<path d="M113.496 34.01H107.26V49.5733H98.2989V10.9336H107.26V26.559H113.724L123.969 10.9336H133.489L120.747 29.5972L133.883 49.5837H123.638L113.506 34.0203L113.496 34.01Z" fill="white"/>
<path d="M145.589 47.6407C142.336 45.9149 139.798 43.5277 137.965 40.4894C136.131 37.4511 135.209 34.0408 135.209 30.2482C135.209 26.4555 136.121 23.0452 137.965 20.0069C139.798 16.9686 142.346 14.5814 145.589 12.8556C148.842 11.1298 152.478 10.2617 156.528 10.2617C160.579 10.2617 164.215 11.1298 167.437 12.8556C170.658 14.5918 173.207 16.9686 175.061 20.0069C176.915 23.0452 177.848 26.4555 177.848 30.2482C177.848 34.0408 176.915 37.4511 175.061 40.4894C173.207 43.5277 170.669 45.9149 167.437 47.6407C164.204 49.3768 160.579 50.2346 156.528 50.2346C152.478 50.2346 148.842 49.3665 145.589 47.6407ZM162.765 41.0474C164.619 39.9934 166.08 38.5362 167.136 36.6657C168.193 34.7952 168.721 32.656 168.721 30.2585C168.721 27.8609 168.193 25.7321 167.136 23.8513C166.08 21.9704 164.619 20.5133 162.765 19.4695C160.91 18.4154 158.828 17.8987 156.528 17.8987C154.229 17.8987 152.146 18.4258 150.292 19.4695C148.438 20.5236 146.977 21.9808 145.92 23.8513C144.864 25.7321 144.335 27.8609 144.335 30.2585C144.335 32.656 144.864 34.7849 145.92 36.6657C146.977 38.5466 148.427 40.0037 150.292 41.0474C152.146 42.1015 154.218 42.6183 156.528 42.6183C158.838 42.6183 160.91 42.0912 162.765 41.0474Z" fill="white"/>
<path d="M184.799 10.9336H193.759V36.1079L212.354 10.9336H220.807V49.5734H211.898V24.4612L193.304 49.5734H184.788V10.9336H184.799ZM191.988 0H198.172C198.245 2.6869 199.788 4.03036 202.793 4.03036C204.274 4.03036 205.414 3.68933 206.191 3.00727C206.967 2.32521 207.371 1.32278 207.413 0H213.597C213.556 2.75924 212.655 4.8571 210.863 6.29356C209.081 7.73002 206.387 8.45342 202.793 8.45342C195.666 8.45342 192.071 5.6425 191.988 0.0103342V0Z" fill="white"/>
<path d="M264.959 10.9336V49.5733H256.05V18.2192H242.686L242.406 26.28C242.22 31.7674 241.775 36.2008 241.07 39.6111C240.366 43.0214 239.185 45.6257 237.538 47.4548C235.88 49.2737 233.57 50.1934 230.607 50.1934C229.385 50.1934 227.904 49.9971 226.153 49.5837L226.712 42.019C227.189 42.1637 227.738 42.236 228.328 42.236C230.483 42.236 231.985 40.9753 232.835 38.4537C233.684 35.9321 234.223 31.9845 234.451 26.6106L235.01 10.9336H264.959Z" fill="white"/>
<path d="M61.1196 55.7949V62.5949H59.545V59.8046H56.4476V62.5949H54.873V55.7949H56.4476V58.4715H59.545V55.7949H61.1196Z" fill="white"/>
<path d="M67.4698 61.1377H64.3102L63.7094 62.5949H62.0934L65.1286 55.7949H66.6825L69.7281 62.5949H68.0706L67.4698 61.1377ZM66.9726 59.939L65.8952 57.3347L64.8178 59.939H66.9726Z" fill="white"/>
<path d="M76.472 55.7955L73.5714 61.1796C73.2917 61.6963 72.9602 62.089 72.5666 62.3577C72.1729 62.6264 71.7482 62.7608 71.2924 62.7608C70.9401 62.7608 70.5672 62.6781 70.1839 62.5231L70.5672 61.3243C70.8366 61.407 71.0645 61.4483 71.2509 61.4483C71.4477 61.4483 71.6239 61.407 71.7792 61.3036C71.9346 61.2003 72.0797 61.066 72.204 60.8593L72.2661 60.7766L69.5831 55.7852H71.2613L73.0742 59.4331L74.9388 55.7852H76.4823L76.472 55.7955Z" fill="white"/>
<path d="M82.9983 55.7949V62.5949H81.4444V60.1456C80.854 60.3627 80.3049 60.466 79.7973 60.466C78.8857 60.466 78.1813 60.249 77.6944 59.8149C77.2075 59.3809 76.9692 58.7505 76.9692 57.9238V55.7949H78.5231V57.7481C78.5231 58.2131 78.6474 58.5645 78.8961 58.8022C79.1447 59.0399 79.5073 59.1536 79.9838 59.1536C80.5017 59.1536 80.9886 59.0502 81.4444 58.8539V55.7949H82.9983Z" fill="white"/>
<path d="M90.9646 55.7949V62.5949H89.39V59.8046H86.2926V62.5949H84.718V55.7949H86.2926V58.4715H89.39V55.7949H90.9646Z" fill="white"/>
<path d="M94.0516 62.2542C93.4819 61.9545 93.0364 61.5308 92.7153 60.9934C92.3942 60.4561 92.2388 59.8567 92.2388 59.1953C92.2388 58.5339 92.4045 57.9242 92.7153 57.3971C93.0364 56.8597 93.4819 56.4464 94.0516 56.1363C94.6214 55.8367 95.2533 55.6816 95.9577 55.6816C96.6622 55.6816 97.3044 55.8367 97.8638 56.1363C98.4232 56.436 98.8687 56.8597 99.2002 57.3971C99.5213 57.9345 99.6871 58.5339 99.6871 59.1953C99.6871 59.8567 99.5213 60.4664 99.2002 60.9934C98.8791 61.5308 98.4336 61.9442 97.8638 62.2542C97.3044 62.5539 96.6622 62.7089 95.9577 62.7089C95.2533 62.7089 94.611 62.5539 94.0516 62.2542ZM97.0558 61.0968C97.377 60.9108 97.6359 60.6524 97.8224 60.3217C98.0089 59.991 98.1021 59.619 98.1021 59.1953C98.1021 58.7716 98.0089 58.3995 97.8224 58.0688C97.6359 57.7382 97.3873 57.4798 97.0558 57.2938C96.7243 57.1078 96.3721 57.0148 95.9681 57.0148C95.5641 57.0148 95.2015 57.1078 94.8804 57.2938C94.5592 57.4798 94.3003 57.7382 94.1138 58.0688C93.9273 58.3995 93.8341 58.7716 93.8341 59.1953C93.8341 59.619 93.9273 59.991 94.1138 60.3217C94.3003 60.6524 94.5489 60.9108 94.8804 61.0968C95.2119 61.2828 95.5641 61.3758 95.9681 61.3758C96.3721 61.3758 96.7347 61.2828 97.0558 61.0968Z" fill="white"/>
<path d="M100.733 58.5449H103.489V59.754H100.733V58.5449Z" fill="white"/>
<path d="M109.995 57.0764H107.819V62.5949H106.265V57.0764H104.1V55.7949H110.005V57.0764H109.995Z" fill="white"/>
<path d="M116.293 61.3341V62.5949H111.02V55.7949H116.169V57.0557H112.595V58.5335H115.754V59.7529H112.595V61.3237H116.303L116.293 61.3341Z" fill="white"/>
<path d="M118.758 55.7949L120.167 57.8514L121.576 55.7949H123.42L121.151 59.0502L123.607 62.5949H121.752L120.167 60.342L118.603 62.5949H116.78L119.214 59.1122L116.935 55.7949H118.758Z" fill="white"/>
<path d="M130.63 55.7949V62.5949H129.056V59.8046H125.958V62.5949H124.384V55.7949H125.958V58.4715H129.056V55.7949H130.63Z" fill="white"/>
<path d="M132.371 55.7949H133.935V60.2283L137.188 55.7949H138.669V62.5949H137.115V58.1718L133.862 62.5949H132.371V55.7949Z" fill="white"/>
<path d="M145.786 55.7949V62.5949H144.232V60.1456C143.641 60.3627 143.092 60.466 142.585 60.466C141.673 60.466 140.969 60.249 140.482 59.8149C139.995 59.3809 139.757 58.7505 139.757 57.9238V55.7949H141.311V57.7481C141.311 58.2131 141.435 58.5645 141.683 58.8022C141.932 59.0399 142.295 59.1536 142.771 59.1536C143.289 59.1536 143.776 59.0502 144.232 58.8539V55.7949H145.786Z" fill="white"/>
<path d="M152.789 61.3341V62.5949H147.516V55.7949H152.664V57.0557H149.09V58.5335H152.25V59.7529H149.09V61.3237H152.799L152.789 61.3341Z" fill="white"/>
<path d="M155.42 62.2542C154.86 61.9545 154.415 61.5308 154.094 61.0038C153.773 60.4664 153.607 59.867 153.607 59.1953C153.607 58.5236 153.773 57.9138 154.094 57.3868C154.415 56.8494 154.86 56.436 155.42 56.1363C155.979 55.8367 156.611 55.6816 157.316 55.6816C157.906 55.6816 158.434 55.785 158.911 55.9917C159.387 56.1984 159.791 56.498 160.113 56.8804L159.097 57.8105C158.642 57.2834 158.072 57.0148 157.388 57.0148C156.963 57.0148 156.59 57.1078 156.259 57.2938C155.927 57.4798 155.668 57.7382 155.482 58.0688C155.296 58.3995 155.202 58.7716 155.202 59.1953C155.202 59.619 155.296 59.991 155.482 60.3217C155.668 60.6524 155.927 60.9108 156.259 61.0968C156.59 61.2828 156.963 61.3758 157.388 61.3758C158.072 61.3758 158.642 61.1071 159.097 60.5697L160.113 61.4998C159.791 61.8925 159.387 62.1922 158.911 62.3989C158.434 62.6056 157.896 62.7089 157.305 62.7089C156.611 62.7089 155.979 62.5539 155.42 62.2542Z" fill="white"/>
<path d="M163.821 59.8563H162.733V62.5949H161.169V55.7949H162.733V58.5438H163.863L165.655 55.7949H167.323L165.095 59.0812L167.395 62.5949H165.603L163.832 59.8563H163.821Z" fill="white"/>
<path d="M169.467 62.2542C168.897 61.9545 168.452 61.5308 168.131 60.9934C167.81 60.4561 167.654 59.8567 167.654 59.1953C167.654 58.5339 167.82 57.9242 168.131 57.3971C168.452 56.8597 168.897 56.4464 169.467 56.1363C170.037 55.8367 170.669 55.6816 171.373 55.6816C172.078 55.6816 172.72 55.8367 173.279 56.1363C173.839 56.436 174.284 56.8597 174.616 57.3971C174.937 57.9345 175.102 58.5339 175.102 59.1953C175.102 59.8567 174.937 60.4664 174.616 60.9934C174.294 61.5308 173.849 61.9442 173.279 62.2542C172.72 62.5539 172.078 62.7089 171.373 62.7089C170.669 62.7089 170.026 62.5539 169.467 62.2542ZM172.471 61.0968C172.792 60.9108 173.051 60.6524 173.238 60.3217C173.424 59.991 173.517 59.619 173.517 59.1953C173.517 58.7716 173.424 58.3995 173.238 58.0688C173.051 57.7382 172.803 57.4798 172.471 57.2938C172.14 57.1078 171.787 57.0148 171.383 57.0148C170.979 57.0148 170.617 57.1078 170.296 57.2938C169.975 57.4798 169.716 57.7382 169.529 58.0688C169.343 58.3995 169.249 58.7716 169.249 59.1953C169.249 59.619 169.343 59.991 169.529 60.3217C169.716 60.6524 169.964 60.9108 170.296 61.0968C170.627 61.2828 170.979 61.3758 171.383 61.3758C171.787 61.3758 172.15 61.2828 172.471 61.0968Z" fill="white"/>
<path d="M181.629 61.3341V62.5949H176.356V55.7949H181.504V57.0557H177.93V58.5335H181.09V59.7529H177.93V61.3237H181.639L181.629 61.3341Z" fill="white"/>
<path d="M191.936 55.7949V62.5949H190.372V57.0764H187.295V62.5949H185.731V55.7949H191.936Z" fill="white"/>
<path d="M198.183 56.0946C198.628 56.291 198.97 56.5803 199.208 56.9524C199.447 57.3244 199.571 57.7584 199.571 58.2648C199.571 58.7712 199.447 59.1949 199.208 59.5669C198.97 59.939 198.628 60.2283 198.183 60.4247C197.737 60.621 197.219 60.7244 196.608 60.7244H195.241V62.5949H193.666V55.7949H196.608C197.209 55.7949 197.737 55.8983 198.183 56.0946ZM197.603 59.1329C197.851 58.9262 197.976 58.6368 197.976 58.2648C197.976 57.8928 197.851 57.5931 197.603 57.3864C197.354 57.1797 196.992 57.0764 196.525 57.0764H195.241V59.4326H196.525C197.002 59.4326 197.354 59.3292 197.603 59.1225V59.1329Z" fill="white"/>
<path d="M205.921 61.3341V62.5949H200.648V55.7949H205.797V57.0557H202.223V58.5335H205.383V59.7529H202.223V61.3237H205.932L205.921 61.3341Z" fill="white"/>
<path d="M214.25 61.3134V64.0003H212.789V62.5949H207.983V64.0003H206.522V61.3134H206.802C207.206 61.3031 207.496 61.0034 207.662 60.4247C207.827 59.8459 207.931 59.0089 207.972 57.9238L208.055 55.7949H213.287V61.3134H214.24H214.25ZM209.174 60.1043C209.07 60.652 208.915 61.0551 208.697 61.3134H211.743V57.0764H209.412L209.381 58.0685C209.35 58.8745 209.278 59.5566 209.174 60.1043Z" fill="white"/>
<path d="M221.564 55.7949V62.5949H219.999V57.0764H216.923V62.5949H215.358V55.7949H221.564Z" fill="white"/>
<path d="M227.81 56.0946C228.256 56.291 228.598 56.5803 228.836 56.9524C229.074 57.3244 229.198 57.7584 229.198 58.2648C229.198 58.7712 229.074 59.1949 228.836 59.5669C228.598 59.939 228.256 60.2283 227.81 60.4247C227.365 60.621 226.847 60.7244 226.236 60.7244H224.868V62.5949H223.294V55.7949H226.236C226.837 55.7949 227.365 55.8983 227.81 56.0946ZM227.23 59.1329C227.479 58.9262 227.603 58.6368 227.603 58.2648C227.603 57.8928 227.479 57.5931 227.23 57.3864C226.982 57.1797 226.619 57.0764 226.153 57.0764H224.868V59.4326H226.153C226.629 59.4326 226.982 59.3292 227.23 59.1225V59.1329Z" fill="white"/>
<path d="M230.276 55.7949H231.84V60.2283L235.093 55.7949H236.574V62.5949H235.02V58.1718L231.768 62.5949H230.276V55.7949Z" fill="white"/>
<path d="M243.732 55.7949V62.5949H242.179V60.7864H240.739L239.537 62.5949H237.869L239.288 60.5487C238.833 60.3627 238.47 60.0733 238.232 59.7013C237.983 59.3189 237.859 58.8642 237.859 58.3371C237.859 57.8101 237.983 57.3657 238.221 56.9834C238.46 56.601 238.801 56.3116 239.247 56.1049C239.692 55.8983 240.21 55.7949 240.801 55.7949H243.743H243.732ZM239.806 57.3864C239.568 57.5931 239.454 57.9031 239.454 58.3061C239.454 58.7092 239.568 59.0089 239.796 59.2156C240.024 59.4326 240.355 59.5359 240.801 59.5359H242.179V57.066H240.832C240.386 57.066 240.045 57.1694 239.806 57.3761V57.3864Z" fill="white"/>
<path d="M250.673 57.0764H248.498V62.5949H246.944V57.0764H244.779V55.7949H250.684V57.0764H250.673Z" fill="white"/>
<path d="M251.709 55.7949H253.273V60.2283L256.526 55.7949H258.008V62.5949H256.454V58.1718L253.201 62.5949H251.709V55.7949Z" fill="white"/>
<path d="M265 61.3341V62.5949H259.727V55.7949H264.876V57.0557H261.302V58.5335H264.461V59.7529H261.302V61.3237H265.01L265 61.3341Z" fill="white"/>
</g>
<defs>
<linearGradient id="paint0_linear_2043_1318" x1="41.6129" y1="54.7405" x2="5.22663" y2="18.0487" gradientUnits="userSpaceOnUse">
<stop stop-color="#94D227"/>
<stop offset="1" stop-color="#007DFE"/>
</linearGradient>
<clipPath id="clip0_2043_1318">
<rect width="265" height="64" fill="white"/>
</clipPath>
</defs>
</svg>
