<svg width="286" height="71" viewBox="0 0 286 71" fill="none" xmlns="http://www.w3.org/2000/svg">
<g clip-path="url(#clip0_2053_296)">
<path d="M24.6518 67.9141C21.4945 67.9141 18.9329 67.4582 17.515 67.1333C11.9752 65.8705 6.56192 60.1853 6.33 59.9442L5.07551 58.6133L6.40906 57.3557C6.98887 56.8108 12.1386 51.9953 14.7899 50.6644C20.2242 47.9397 29.1796 48.4689 29.5591 48.4898L29.3272 52.1525C29.2428 52.1525 20.9885 51.6652 16.4555 53.9393C15.0482 54.6467 12.2546 57.0256 10.3675 58.7181C12.1228 60.3005 15.3222 62.8681 18.3425 63.5545C22.0322 64.3929 34.7405 66.3054 43.1845 55.5165C48.9931 48.1021 47.7544 39.7288 46.384 35.1544C44.5181 37.5595 41.1921 40.5252 35.568 41.9714C33.8022 42.4273 31.9416 42.6159 29.9702 42.8151C25.4056 43.2814 20.2295 43.8106 14.131 47.8139C11.933 49.2549 7.17862 53.8712 5.53408 55.527L3.83156 57.2404L2.62451 55.155C2.41895 54.7987 -2.38289 46.2891 1.54924 32.8069C4.80669 21.6459 23.2181 2.19551 23.9982 1.37285L25.3002 0L26.6812 1.37285C28.9319 3.55788 40.4015 14.9337 45.1348 24.2449L41.8404 25.9007C37.9768 18.2977 28.895 8.79776 25.3898 5.27656C21.1308 9.91909 7.62665 25.1252 5.08078 33.8444C2.71939 41.9452 3.85792 47.9606 4.8594 51.0364C6.93089 49.04 10.1514 46.0376 12.0859 44.7695C18.9381 40.2685 24.8416 39.6659 29.5802 39.1838C31.4092 38.9952 33.1381 38.8223 34.6298 38.4345C42.7576 36.3438 44.8923 30.5799 44.9819 30.3337L46.4262 26.278L48.3764 30.1083C48.6874 30.7214 55.8665 45.2883 46.0888 57.7749C39.5739 66.0958 30.9348 67.9141 24.6466 67.9141H24.6518Z" fill="url(#paint0_linear_2053_296)"/>
<path d="M88.41 19.6067C91.367 21.2626 93.6862 23.5576 95.3677 26.4972C97.0491 29.4368 97.8924 32.7536 97.8924 36.4582C97.8924 40.1628 97.0491 43.4849 95.3677 46.4192C93.6809 49.3588 91.367 51.6539 88.41 53.3097C85.453 54.9655 82.1165 55.7934 78.3899 55.7934C75.0587 55.7934 72.0595 55.2222 69.3871 54.0852C66.72 52.9481 64.4904 51.2923 62.6983 49.1178L68.2328 43.9879C70.8841 46.9432 74.1257 48.4209 77.9577 48.4209C80.7144 48.4209 83.0547 47.6191 84.9681 46.0157C86.8814 44.4123 88.1306 42.2588 88.6999 39.555H73.4405V32.9318H88.5945C87.983 30.3695 86.7338 28.3207 84.831 26.7906C82.9335 25.2606 80.6406 24.4956 77.9524 24.4956C74.1204 24.4956 70.8788 25.9732 68.2275 28.9285L62.693 23.7987C64.4851 21.6241 66.7147 19.9683 69.3818 18.8312C72.0489 17.6942 75.0481 17.123 78.3846 17.123C82.1112 17.123 85.4477 17.9509 88.4047 19.6067H88.41Z" fill="#002269"/>
<path d="M119.277 40.0908H113.257V55.1554H104.608V17.7637H113.257V32.8807H119.493L129.381 17.7637H138.569L126.266 35.8203L138.948 55.1554H129.06L119.282 40.0908H119.277Z" fill="#002269"/>
<path d="M150.254 53.2835C147.118 51.6119 144.667 49.3064 142.891 46.3668C141.12 43.4272 140.229 40.1261 140.229 36.4582C140.229 32.7903 141.114 29.4892 142.891 26.5496C144.662 23.61 147.118 21.3045 150.254 19.6329C153.39 17.9614 156.906 17.123 160.812 17.123C164.718 17.123 168.228 17.9614 171.343 19.6329C174.458 21.3097 176.915 23.61 178.707 26.5496C180.499 29.4892 181.395 32.7903 181.395 36.4582C181.395 40.1261 180.499 43.4272 178.707 46.3668C176.915 49.3064 174.464 51.6119 171.343 53.2835C168.228 54.9602 164.718 55.7934 160.812 55.7934C156.906 55.7934 153.39 54.955 150.254 53.2835ZM166.831 46.9013C168.623 45.8848 170.031 44.47 171.048 42.657C172.065 40.844 172.582 38.7742 172.582 36.4582C172.582 34.1422 172.071 32.0777 171.048 30.2594C170.025 28.4412 168.623 27.0264 166.831 26.0151C165.039 24.9986 163.031 24.4903 160.812 24.4903C158.593 24.4903 156.585 24.9986 154.792 26.0151C153 27.0317 151.593 28.4464 150.576 30.2594C149.553 32.0777 149.042 34.1422 149.042 36.4582C149.042 38.7742 149.553 40.8387 150.576 42.657C151.598 44.4752 153 45.89 154.792 46.9013C156.585 47.9178 158.587 48.4261 160.812 48.4261C163.036 48.4261 165.039 47.9178 166.831 46.9013Z" fill="#002269"/>
<path d="M188.11 17.7629H196.76V42.1179L214.707 17.7629H222.872V55.1547H214.275V30.8521L196.328 55.1547H188.105V17.7629H188.11ZM195.041 7.18883H201.008C201.077 9.78781 202.568 11.0873 205.467 11.0873C206.901 11.0873 207.992 10.7572 208.746 10.097C209.5 9.43674 209.89 8.46736 209.927 7.18359H215.893C215.856 9.85593 214.981 11.8838 213.258 13.2723C211.534 14.6609 208.941 15.3578 205.467 15.3578C198.589 15.3578 195.115 12.6331 195.041 7.18359V7.18883Z" fill="#002269"/>
<path d="M265.482 17.7637V55.1554H256.886V24.8165H243.988L243.719 32.6135C243.539 37.9215 243.107 42.2182 242.427 45.5141C241.747 48.81 240.609 51.3356 239.017 53.1014C237.42 54.862 235.19 55.7476 232.328 55.7476C231.147 55.7476 229.714 55.5537 228.027 55.1607L228.565 47.8406C229.029 47.9821 229.55 48.0554 230.125 48.0554C232.202 48.0554 233.651 46.8345 234.479 44.398C235.301 41.9614 235.823 38.1416 236.039 32.9384L236.577 17.7689H265.482V17.7637Z" fill="#002269"/>
</g>
<path d="M66.9911 62.1989H68.4914V68.6816H66.9911V62.1989ZM64.0461 68.6816H62.5458V62.1989H64.0461V68.6816ZM67.1022 66.0237H63.935V64.755H67.1022V66.0237ZM69.5692 68.6816L72.4586 62.1989H73.9404L76.8391 68.6816H75.2647L72.8939 62.9583H73.4866L71.1065 68.6816H69.5692ZM71.0139 67.2925L71.4122 66.1534H74.7461L75.1536 67.2925H71.0139ZM77.7626 67.4592C78.1207 67.5641 78.4201 67.595 78.6609 67.5518C78.9079 67.5024 79.1271 67.3295 79.3184 67.0332L79.6333 66.5609L79.7722 66.4034L81.9208 62.1989H83.3933L80.6335 67.3295C80.3866 67.7926 80.0933 68.1476 79.7537 68.3945C79.4203 68.6415 79.053 68.7804 78.6517 68.8113C78.2503 68.8483 77.8336 68.7773 77.4014 68.5983L77.7626 67.4592ZM79.7445 67.6537L76.818 62.1989H78.4201L80.5687 66.5516L79.7445 67.6537ZM88.4835 66.2645C88.1624 66.3942 87.8537 66.493 87.5573 66.5609C87.261 66.6226 86.977 66.6535 86.7053 66.6535C85.8348 66.6535 85.168 66.4467 84.705 66.033C84.2419 65.6132 84.0104 65.0112 84.0104 64.2271V62.1989H85.4921V64.0604C85.4921 64.5049 85.6125 64.8414 85.8533 65.0698C86.0941 65.2921 86.4368 65.4032 86.8813 65.4032C87.1653 65.4032 87.44 65.3724 87.7055 65.3106C87.971 65.2427 88.218 65.147 88.4464 65.0235L88.4835 66.2645ZM88.2704 68.6816V62.1989H89.7522V68.6816H88.2704ZM95.9943 62.1989H97.4946V68.6816H95.9943V62.1989ZM93.0493 68.6816H91.5491V62.1989H93.0493V68.6816ZM96.1055 66.0237H92.9382V64.755H96.1055V66.0237ZM102.407 68.7928C101.894 68.7928 101.419 68.7094 100.98 68.5427C100.548 68.376 100.172 68.1414 99.8505 67.8389C99.5356 67.5364 99.2886 67.1814 99.1096 66.7739C98.9367 66.3664 98.8503 65.9219 98.8503 65.4403C98.8503 64.9587 98.9367 64.5142 99.1096 64.1067C99.2886 63.6992 99.5387 63.3442 99.8597 63.0417C100.181 62.7392 100.557 62.5045 100.99 62.3378C101.422 62.1712 101.891 62.0878 102.397 62.0878C102.91 62.0878 103.379 62.1712 103.805 62.3378C104.237 62.5045 104.611 62.7392 104.926 63.0417C105.247 63.3442 105.497 63.6992 105.676 64.1067C105.855 64.508 105.944 64.9525 105.944 65.4403C105.944 65.9219 105.855 66.3695 105.676 66.7831C105.497 67.1906 105.247 67.5456 104.926 67.8481C104.611 68.1445 104.237 68.376 103.805 68.5427C103.379 68.7094 102.913 68.7928 102.407 68.7928ZM102.397 67.5148C102.687 67.5148 102.953 67.4654 103.194 67.3666C103.441 67.2678 103.657 67.1258 103.842 66.9406C104.027 66.7554 104.169 66.5362 104.268 66.283C104.373 66.0299 104.425 65.749 104.425 65.4403C104.425 65.1316 104.373 64.8507 104.268 64.5975C104.169 64.3444 104.027 64.1252 103.842 63.94C103.663 63.7548 103.45 63.6128 103.203 63.514C102.956 63.4152 102.687 63.3658 102.397 63.3658C102.107 63.3658 101.839 63.4152 101.592 63.514C101.351 63.6128 101.138 63.7548 100.953 63.94C100.767 64.1252 100.622 64.3444 100.517 64.5975C100.418 64.8507 100.369 65.1316 100.369 65.4403C100.369 65.7428 100.418 66.0237 100.517 66.283C100.622 66.5362 100.764 66.7554 100.943 66.9406C101.128 67.1258 101.345 67.2678 101.592 67.3666C101.839 67.4654 102.107 67.5148 102.397 67.5148ZM111.492 68.6816V63.0787L111.834 63.4214H109.426V62.1989H115.048V63.4214H112.64L112.973 63.0787V68.6816H111.492ZM117.555 64.8105H120.676V65.9774H117.555V64.8105ZM117.666 67.4777H121.194V68.6816H116.175V62.1989H121.074V63.4029H117.666V67.4777ZM121.963 62.1989H123.695L125.038 64.1623L126.381 62.1989H128.14L125.983 65.3014L128.316 68.6816H126.548L125.038 66.5331L123.547 68.6816H121.815L124.13 65.3662L121.963 62.1989ZM133.634 62.1989H135.134V68.6816H133.634V62.1989ZM130.689 68.6816H129.189V62.1989H130.689V68.6816ZM133.745 66.0237H130.578V64.755H133.745V66.0237ZM136.944 68.6816V62.1989H138.435V66.422L141.528 62.1989H142.936V68.6816H141.454V64.4679L138.361 68.6816H136.944ZM148.611 66.2645C148.29 66.3942 147.981 66.493 147.684 66.5609C147.388 66.6226 147.104 66.6535 146.832 66.6535C145.962 66.6535 145.295 66.4467 144.832 66.033C144.369 65.6132 144.137 65.0112 144.137 64.2271V62.1989H145.619V64.0604C145.619 64.5049 145.74 64.8414 145.98 65.0698C146.221 65.2921 146.564 65.4032 147.008 65.4032C147.292 65.4032 147.567 65.3724 147.833 65.3106C148.098 65.2427 148.345 65.147 148.574 65.0235L148.611 66.2645ZM148.398 68.6816V62.1989H149.879V68.6816H148.398ZM153.056 64.8105H156.177V65.9774H153.056V64.8105ZM153.167 67.4777H156.696V68.6816H151.676V62.1989H156.575V63.4029H153.167V67.4777ZM161.158 68.7928C160.658 68.7928 160.192 68.7125 159.76 68.552C159.334 68.3853 158.963 68.1507 158.648 67.8481C158.333 67.5456 158.086 67.1906 157.907 66.7831C157.735 66.3756 157.648 65.928 157.648 65.4403C157.648 64.9525 157.735 64.5049 157.907 64.0974C158.086 63.69 158.333 63.335 158.648 63.0324C158.969 62.7299 159.343 62.4984 159.769 62.3378C160.195 62.1712 160.661 62.0878 161.167 62.0878C161.729 62.0878 162.235 62.1866 162.686 62.3842C163.143 62.5755 163.526 62.8596 163.834 63.2362L162.871 64.1252C162.649 63.8721 162.402 63.6838 162.13 63.5603C161.859 63.4306 161.562 63.3658 161.241 63.3658C160.939 63.3658 160.661 63.4152 160.408 63.514C160.155 63.6128 159.936 63.7548 159.75 63.94C159.565 64.1252 159.42 64.3444 159.315 64.5975C159.216 64.8507 159.167 65.1316 159.167 65.4403C159.167 65.749 159.216 66.0299 159.315 66.283C159.42 66.5362 159.565 66.7554 159.75 66.9406C159.936 67.1258 160.155 67.2678 160.408 67.3666C160.661 67.4654 160.939 67.5148 161.241 67.5148C161.562 67.5148 161.859 67.453 162.13 67.3295C162.402 67.1999 162.649 67.0054 162.871 66.7461L163.834 67.6351C163.526 68.0118 163.143 68.2989 162.686 68.4964C162.235 68.694 161.726 68.7928 161.158 68.7928ZM169.193 68.6816L167.174 65.5607L168.387 64.8291L170.897 68.6816H169.193ZM164.979 68.6816V62.1989H166.47V68.6816H164.979ZM166.035 66.07V64.8198H168.294V66.07H166.035ZM168.526 65.607L167.146 65.4403L169.248 62.1989H170.832L168.526 65.607ZM174.86 68.7928C174.348 68.7928 173.872 68.7094 173.434 68.5427C173.002 68.376 172.625 68.1414 172.304 67.8389C171.989 67.5364 171.742 67.1814 171.563 66.7739C171.39 66.3664 171.304 65.9219 171.304 65.4403C171.304 64.9587 171.39 64.5142 171.563 64.1067C171.742 63.6992 171.992 63.3442 172.313 63.0417C172.634 62.7392 173.011 62.5045 173.443 62.3378C173.875 62.1712 174.345 62.0878 174.851 62.0878C175.363 62.0878 175.833 62.1712 176.259 62.3378C176.691 62.5045 177.064 62.7392 177.379 63.0417C177.7 63.3442 177.95 63.6992 178.129 64.1067C178.308 64.508 178.398 64.9525 178.398 65.4403C178.398 65.9219 178.308 66.3695 178.129 66.7831C177.95 67.1906 177.7 67.5456 177.379 67.8481C177.064 68.1445 176.691 68.376 176.259 68.5427C175.833 68.7094 175.366 68.7928 174.86 68.7928ZM174.851 67.5148C175.141 67.5148 175.407 67.4654 175.647 67.3666C175.894 67.2678 176.11 67.1258 176.296 66.9406C176.481 66.7554 176.623 66.5362 176.722 66.283C176.827 66.0299 176.879 65.749 176.879 65.4403C176.879 65.1316 176.827 64.8507 176.722 64.5975C176.623 64.3444 176.481 64.1252 176.296 63.94C176.117 63.7548 175.904 63.6128 175.657 63.514C175.41 63.4152 175.141 63.3658 174.851 63.3658C174.561 63.3658 174.292 63.4152 174.045 63.514C173.804 63.6128 173.591 63.7548 173.406 63.94C173.221 64.1252 173.076 64.3444 172.971 64.5975C172.872 64.8507 172.823 65.1316 172.823 65.4403C172.823 65.7428 172.872 66.0237 172.971 66.283C173.076 66.5362 173.218 66.7554 173.397 66.9406C173.582 67.1258 173.798 67.2678 174.045 67.3666C174.292 67.4654 174.561 67.5148 174.851 67.5148ZM181.119 64.8105H184.24V65.9774H181.119V64.8105ZM181.23 67.4777H184.758V68.6816H179.739V62.1989H184.638V63.4029H181.23V67.4777ZM188.963 68.6816V62.1989H194.872V68.6816H193.381V63.0787L193.723 63.4214H190.112L190.454 63.0787V68.6816H188.963ZM196.664 68.6816V62.1989H199.47C200.051 62.1989 200.551 62.2946 200.97 62.486C201.39 62.6712 201.714 62.9398 201.943 63.2917C202.171 63.6437 202.285 64.0635 202.285 64.5512C202.285 65.0328 202.171 65.4495 201.943 65.8015C201.714 66.1534 201.39 66.425 200.97 66.6164C200.551 66.8017 200.051 66.8943 199.47 66.8943H197.498L198.164 66.2182V68.6816H196.664ZM198.164 66.3849L197.498 65.6718H199.387C199.85 65.6718 200.196 65.573 200.424 65.3755C200.652 65.1779 200.767 64.9031 200.767 64.5512C200.767 64.1931 200.652 63.9153 200.424 63.7177C200.196 63.5202 199.85 63.4214 199.387 63.4214H197.498L198.164 62.7083V66.3849ZM204.84 64.8105H207.961V65.9774H204.84V64.8105ZM204.951 67.4777H208.48V68.6816H203.46V62.1989H208.359V63.4029H204.951V67.4777ZM214.174 68.0148V63.4214H211.951L211.924 64.366C211.905 64.7673 211.877 65.147 211.84 65.5051C211.809 65.8632 211.76 66.1904 211.692 66.4868C211.624 66.777 211.535 67.0239 211.424 67.2277C211.319 67.4314 211.186 67.5765 211.025 67.6629L209.423 67.4592C209.645 67.4654 209.828 67.3882 209.97 67.2277C210.118 67.0671 210.235 66.8418 210.321 66.5516C210.408 66.2553 210.47 65.9095 210.507 65.5144C210.55 65.1192 210.581 64.6901 210.599 64.2271L210.673 62.1989H215.656V68.0148H214.174ZM209.21 70.0245L209.219 67.4592H216.563V70.0245H215.174V68.6816H210.599V70.0245H209.21ZM217.759 68.6816V62.1989H223.667V68.6816H222.176V63.0787L222.519 63.4214H218.907L219.25 63.0787V68.6816H217.759ZM225.459 68.6816V62.1989H228.265C228.846 62.1989 229.346 62.2946 229.766 62.486C230.185 62.6712 230.51 62.9398 230.738 63.2917C230.967 63.6437 231.081 64.0635 231.081 64.5512C231.081 65.0328 230.967 65.4495 230.738 65.8015C230.51 66.1534 230.185 66.425 229.766 66.6164C229.346 66.8017 228.846 66.8943 228.265 66.8943H226.293L226.96 66.2182V68.6816H225.459ZM226.96 66.3849L226.293 65.6718H228.182C228.645 65.6718 228.991 65.573 229.219 65.3755C229.448 65.1779 229.562 64.9031 229.562 64.5512C229.562 64.1931 229.448 63.9153 229.219 63.7177C228.991 63.5202 228.645 63.4214 228.182 63.4214H226.293L226.96 62.7083V66.3849ZM232.256 68.6816V62.1989H233.747V66.422L236.84 62.1989H238.248V68.6816H236.766V64.4679L233.673 68.6816H232.256ZM243.742 68.6816V66.635L244.112 66.9591H242.334C241.772 66.9591 241.288 66.8665 240.88 66.6813C240.473 66.496 240.161 66.2275 239.945 65.8756C239.729 65.5236 239.621 65.1038 239.621 64.6161C239.621 64.1098 239.735 63.6776 239.963 63.3195C240.198 62.9552 240.525 62.6774 240.945 62.486C241.365 62.2946 241.859 62.1989 242.427 62.1989H245.224V68.6816H243.742ZM239.639 68.6816L241.251 66.3571H242.77L241.223 68.6816H239.639ZM243.742 66.1534V63.0324L244.112 63.4214H242.464C242.038 63.4214 241.711 63.5202 241.482 63.7177C241.26 63.9153 241.149 64.2086 241.149 64.5975C241.149 64.9741 241.257 65.2643 241.473 65.4681C241.689 65.6718 242.007 65.7737 242.427 65.7737H244.112L243.742 66.1534ZM248.432 68.6816V63.0787L248.774 63.4214H246.366V62.1989H251.988V63.4214H249.58L249.913 63.0787V68.6816H248.432ZM253.115 68.6816V62.1989H254.606V66.422L257.699 62.1989H259.107V68.6816H257.625V64.4679L254.532 68.6816H253.115ZM262.286 64.8105H265.407V65.9774H262.286V64.8105ZM262.397 67.4777H265.926V68.6816H260.906V62.1989H265.805V63.4029H262.397V67.4777Z" fill="#002269"/>
<defs>
<linearGradient id="paint0_linear_2053_296" x1="45.0926" y1="59.0744" x2="5.72085" y2="19.4691" gradientUnits="userSpaceOnUse">
<stop stop-color="#94D227"/>
<stop offset="1" stop-color="#007DFE"/>
</linearGradient>
<clipPath id="clip0_2053_296">
<rect width="265.482" height="67.9141" fill="white"/>
</clipPath>
</defs>
</svg>
