<svg width="304" height="82" viewBox="0 0 304 82" fill="none" xmlns="http://www.w3.org/2000/svg">
<path d="M80.2323 0.888672H0V81.0798H80.2323V0.888672Z" fill="#ED1A3A"/>
<path d="M67.2772 8.87739C65.4343 8.87739 64.0376 10.0991 63.3409 11.5679L53.2377 28.1916C52.5376 29.7291 52.0262 31.4553 52.0262 32.5981C52.0262 33.6207 52.167 34.5233 52.541 35.3538L63.4679 61.4459H21.0336C19.5064 61.4459 18.2469 59.9118 18.2469 58.4979V13.5549C17.9244 7.41201 9.09088 7.41544 8.89526 13.7471L9.08744 61.4493C9.08744 66.6347 13.0992 70.7907 18.2469 70.7907H76.1038L62.0025 34.7258C61.6147 33.3839 61.4397 32.1657 62.3869 30.5664L71.718 15.4013C71.8484 15.0855 72.0406 13.7471 72.0406 13.3628C71.8552 10.6105 69.6966 8.75728 67.2772 8.88082V8.87739ZM44.3699 8.89798C42.1014 8.91171 39.833 10.48 39.833 13.5515V45.7144C39.833 50.3851 33.5494 50.0008 33.5494 45.7144V13.5549C33.5494 7.41201 24.4551 7.41201 24.4551 13.5549V45.9753C24.4551 53.388 29.994 58.3195 36.6071 58.3195C43.3987 58.3195 48.9205 53.3914 48.9205 45.9753V13.5549C48.9205 10.4217 46.6417 8.88426 44.3733 8.90142L44.3699 8.89798Z" fill="white"/>
<path d="M95.9534 10.3125V31.5279C95.9534 36.8301 95.4146 39.778 91.0939 39.778C90.2875 39.778 89.7452 39.778 88.9388 39.4863V48.6184C90.5551 49.2121 91.6327 49.2121 92.9849 49.2121C105.127 49.2121 105.669 40.0766 105.669 34.7676V19.448H112.683V48.6184H122.395V10.3125H95.9534Z" fill="white"/>
<path d="M125.635 10.3125L138.858 38.0141L134.002 48.6184H144.524L160.173 10.3125H149.651L143.982 26.5175L137.235 10.3125H125.632" fill="white"/>
<path d="M163.141 48.6218H172.857V32.1182L182.84 48.6218H195.249L181.491 28.8786L194.982 10.3125H183.379L172.857 26.5175V10.3125H163.141V48.6184" fill="white"/>
<path d="M211.176 49.803C224.128 49.803 230.062 39.7821 230.062 29.4661C230.062 19.1501 224.128 9.42773 211.176 9.42773C198.225 9.42773 192.559 19.4486 192.559 29.4661C192.559 39.4835 198.492 49.803 211.176 49.803ZM211.176 40.6675C206.856 40.6675 202.542 36.8342 202.542 29.4695C202.542 22.1048 206.856 18.5666 211.176 18.5666C215.765 18.5666 220.078 22.1048 220.078 29.4695C220.078 36.8342 215.765 40.6675 211.176 40.6675Z" fill="white"/>
<path d="M234.921 10.3126V48.6184H244.365L257.856 25.6356V48.6184H267.304V10.3126H257.856L244.365 33.2988V10.3126H234.921ZM251.38 8.25007C255.426 8.25007 259.476 6.77439 261.367 2.35422L255.697 0C254.884 2.94792 252.458 3.23963 251.377 3.23963C250.57 3.23963 247.869 2.94792 247.331 0L241.668 2.35422C243.284 6.77782 247.602 8.25007 251.38 8.25007Z" fill="white"/>
<path d="M277.558 10.3125V31.5279C277.558 36.8301 277.012 39.778 272.699 39.778C271.892 39.778 271.35 39.778 270.54 39.4863V48.6184C272.16 49.2121 273.241 49.2121 274.586 49.2121C286.728 49.2121 287.27 40.0766 287.27 34.7676V19.448H294.285V48.6184H304V10.3125H277.558Z" fill="white"/>
<path d="M89.0142 70.1187H90.3801V63.0114H98.3625V70.1187H99.7284V56.1855H98.3625V61.8926H90.3801V56.1855H89.0142V70.1187Z" fill="white"/>
<path d="M103.212 70.1187H110.7V68.9999H104.581V62.8741H110.456V61.7554H104.581V57.3078H110.7V56.1855H103.212V70.1187Z" fill="white"/>
<path d="M119.708 70.1185H121.061V68.2001H121.63C126.136 68.2001 128 65.5336 128 62.7401C128 59.4696 125.58 57.3075 121.63 57.3075H121.061V55.6328H119.708V57.3075H119.159C115.185 57.3075 112.773 59.473 112.773 62.7401C112.773 65.5336 114.636 68.2001 119.159 68.2001H119.708V70.1185ZM121.061 58.4263C125.58 58.4846 126.572 60.5952 126.572 62.7401C126.572 66.0861 124.348 66.9578 121.061 67.0745V58.4229V58.4263ZM119.708 67.0779C116.421 66.9612 114.197 66.0895 114.197 62.7435C114.197 60.5986 115.185 58.4881 119.708 58.4297V67.0813" fill="white"/>
<path d="M132.935 70.1187H134.249V57.3078H137.955V56.1855H129.232V57.3078H132.935V70.1187Z" fill="white"/>
<path d="M139.572 70.1187H141.109L144.815 63.9998H145.993V70.1187H147.365V56.1855H144.15C139.932 56.1855 139.325 58.9825 139.325 60.2179C139.325 62.5721 141.167 63.9963 143.34 63.9208L139.575 70.1187H139.572ZM145.993 62.8741H144.016C142.897 62.8741 140.673 62.7437 140.673 60.0807C140.673 57.4176 143.027 57.3078 144.146 57.3078H145.989V62.8741" fill="white"/>
<path d="M150.862 70.1187H152.228V63.0114H160.211V70.1187H161.576V56.1855H160.211V61.8926H152.228V56.1855H150.862V70.1187Z" fill="white"/>
<path d="M163.577 70.1197H164.95L166.868 65.5965H172.74L174.662 70.1197H176.028L169.775 55.8262L163.577 70.1197ZM167.362 64.4949L169.775 58.7947L172.246 64.4949H167.362Z" fill="white"/>
<path d="M177.606 70.1187H179.144L182.85 63.9998H184.027V70.1187H185.393V56.1855H182.181C177.963 56.1855 177.356 58.9825 177.356 60.2179C177.356 62.5721 179.199 63.9963 181.364 63.9208L177.603 70.1187H177.606ZM184.027 62.8741H182.051C180.928 62.8741 178.705 62.7437 178.705 60.0807C178.705 57.4176 181.066 57.3078 182.184 57.3078H184.027V62.8741Z" fill="white"/>
<path d="M193.516 70.1187H194.882V63.3718L201.135 70.1187H202.919L196.173 62.9325L202.81 56.1855H201.135L194.882 62.6854V56.1855H193.516V70.1187Z" fill="white"/>
<path d="M211.739 70.5575C215.885 70.5575 219.286 67.5752 219.286 63.1825C219.286 58.7898 215.885 55.8281 211.739 55.8281C207.594 55.8281 204.251 58.7966 204.251 63.1825C204.251 67.5683 207.652 70.5575 211.739 70.5575ZM211.739 69.3803C208.338 69.3803 205.679 66.8305 205.679 63.1825C205.679 59.5345 208.338 56.9297 211.739 56.9297C215.14 56.9297 217.858 59.5311 217.858 63.1825C217.858 66.8339 215.144 69.3803 211.739 69.3803Z" fill="white"/>
<path d="M221.166 70.119H222.481L223.771 59.8338L228.905 70.747L233.981 59.8338L235.354 70.119H236.586L234.667 55.6367L228.909 68.0873L223.092 55.6367L221.173 70.119" fill="white"/>
<path d="M239.149 56.1855V70.1187H240.515V57.3078H248.497V70.1187H249.863V56.1855H239.146" fill="white"/>
<path d="M251.864 70.1197H253.23L255.148 65.5965H261.023L262.942 70.1197H264.308L258.055 55.8262L251.861 70.1197H251.864ZM255.642 64.4949L258.055 58.7947L260.526 64.4949H255.642Z" fill="white"/>
<path d="M266.25 70.1187H267.616V63.0114H275.598V70.1187H276.971V56.1855H275.598V61.8926H267.616V56.1855H266.25V70.1187Z" fill="white"/>
<path d="M280.447 56.1858V70.747L289.991 59.096V70.119H291.34V55.6367L281.82 67.2122V56.1892H280.447" fill="white"/>
<path d="M294.418 70.1187H295.956L299.662 63.9998H300.839V70.1187H302.212V56.1855H299C294.779 56.1855 294.168 58.9825 294.168 60.2179C294.168 62.5721 296.011 63.9963 298.183 63.9208L294.418 70.1187ZM300.839 62.8741H298.863C297.744 62.8741 295.52 62.7437 295.52 60.0807C295.52 57.4176 297.874 57.3078 299 57.3078H300.839V62.8741Z" fill="white"/>
</svg>
