<svg width="100" height="95" viewBox="0 0 100 95" fill="none" xmlns="http://www.w3.org/2000/svg">
<path d="M65.1315 30.3388C61.251 29.3328 55.8585 27.8535 51.5356 27.8535C30.2203 27.8535 12.941 41.1129 12.941 57.4694C12.941 66.8686 18.6469 75.2449 27.5456 80.6707L25.1346 88.6226C24.5539 90.5377 25.9872 92.4703 27.9886 92.4703H36.7571C37.4027 92.4703 38.0309 92.261 38.5472 91.8733L45.479 86.6711H57.5917L64.5236 91.8733C65.04 92.261 65.6683 92.4703 66.314 92.4703H75.0825C77.0836 92.4703 78.5171 90.5377 77.936 88.6226L75.5253 80.6707C80.8269 77.4384 84.9952 73.1583 87.4988 68.239" stroke="white" stroke-width="5" stroke-linecap="round" stroke-linejoin="round"/>
<path d="M65.1313 30.3386L87.4987 22.8828L87.0812 40.9173L97.4397 45.2501V62.647L87.867 67.6175" stroke="white" stroke-width="5" stroke-linecap="round" stroke-linejoin="round"/>
<path d="M70.1021 52.7049C68.7297 52.7049 67.6168 51.592 67.6168 50.2196C67.6168 48.8473 68.7297 47.7344 70.1021 47.7344C71.4744 47.7344 72.5873 48.8473 72.5873 50.2196C72.5873 51.592 71.4744 52.7049 70.1021 52.7049Z" fill="white" stroke="white" stroke-width="5" stroke-linecap="round" stroke-linejoin="round"/>
<path d="M3 37.793C3 37.793 3 49.7222 12.941 52.7045" stroke="white" stroke-width="5" stroke-linecap="round" stroke-linejoin="round"/>
<path d="M56.6856 26.6247C57.3268 24.7774 57.6757 22.7894 57.6757 20.7185C57.6757 10.9328 49.8869 3 40.2789 3C30.6709 3 22.8821 10.9328 22.8821 20.7185C22.8821 25.399 24.664 29.6556 27.5744 32.8231" stroke="white" stroke-width="5" stroke-linejoin="round"/>
</svg>
