<svg width="92" height="92" viewBox="0 0 92 92" fill="none" xmlns="http://www.w3.org/2000/svg">
<path d="M26.3528 45.5742L41.3434 60.5648" stroke="white" stroke-width="4" stroke-linecap="round"/>
<path d="M69.559 32.3496L41.5503 60.3583" stroke="white" stroke-width="4" stroke-linecap="round"/>
<path d="M45.9894 90C44.2536 90 42.5179 89.2191 40.7504 87.6574C39.4506 86.5017 38.1349 86.2674 36.4943 86.9156C32.04 88.6647 29.0124 87.5871 26.6664 83.4407C25.8025 81.9024 24.5978 81.223 22.7986 81.2621C18.1303 81.3324 15.5941 79.2552 14.857 74.7028C14.5637 72.9068 13.6523 71.8448 11.9086 71.2592C7.57323 69.8067 5.85334 66.8551 6.78066 62.4978C7.16109 60.7018 6.66177 59.3665 5.14795 58.1718C1.66062 55.4075 1.07411 52.0888 3.41221 48.3094C4.395 46.7164 4.395 45.2875 3.41221 43.6867C1.05033 39.8448 1.64477 36.5886 5.24306 33.7384C6.68555 32.5983 7.16109 31.2865 6.78066 29.4983C5.85334 25.141 7.58116 22.1894 11.9086 20.7369C13.6998 20.1357 14.6034 19.0268 14.9125 17.0434C15.5782 12.8267 18.1937 10.7184 22.759 10.734H22.8065C24.5343 10.9449 25.8262 10.1484 26.8487 8.21962C28.7509 4.64324 32.2699 3.37043 36.0188 4.90093C38.0161 5.71303 39.5616 5.43973 41.1705 3.98732C44.103 1.33236 47.8916 1.34017 50.832 3.99512C52.433 5.43973 53.9706 5.71303 55.9917 4.89312C59.7326 3.37043 63.2437 4.65886 65.1459 8.25086C66.1129 10.0781 67.4048 10.8277 69.4655 10.7653C73.8088 10.6325 76.5194 12.9205 77.1217 17.2074C77.3912 19.1596 78.3661 20.3075 80.086 20.7135C81.9247 21.1508 83.5416 22.3533 84.5323 24.0166C85.5072 25.6564 85.7608 27.5852 85.2298 29.428C84.7305 31.1694 85.2456 32.5749 86.8625 33.8399C90.3261 36.5573 90.9363 39.9307 88.622 43.6008C87.5758 45.264 87.5837 46.7555 88.6537 48.4422C90.9126 51.9951 90.2785 55.5246 86.91 58.1171C85.2536 59.3978 84.7146 60.7877 85.2219 62.49C85.7608 64.286 85.523 66.2616 84.5799 67.9014C83.605 69.5881 81.9882 70.7984 80.0305 71.2982C78.3265 71.7355 77.4071 72.8209 77.1297 74.7184C76.4956 79.1147 73.7691 81.3714 69.2832 81.2543C67.3889 81.2152 66.1525 81.918 65.241 83.5735C63.109 87.4544 59.8991 88.6022 55.7143 86.978C53.9468 86.2909 52.5202 86.5408 51.0936 87.7745C49.3737 89.2582 47.6855 90 45.9894 90Z" stroke="white" stroke-width="4" stroke-miterlimit="10"/>
</svg>
