<svg width="313" height="161" viewBox="0 0 313 161" fill="none" xmlns="http://www.w3.org/2000/svg">
<g clip-path="url(#clip0_2008_192)">
<path d="M156.487 0L93.5834 109.06H219.417L156.487 0Z" fill="black"/>
<path d="M156.487 109.06C176.473 109.06 192.675 92.8419 192.675 72.8357C192.675 52.8295 176.473 36.6113 156.487 36.6113C136.501 36.6113 120.299 52.8295 120.299 72.8357C120.299 92.8419 136.501 109.06 156.487 109.06Z" fill="white"/>
<path d="M156.487 82.7806C169.224 82.7806 179.548 72.4453 179.548 59.696C179.548 46.9467 169.224 36.6113 156.487 36.6113C143.751 36.6113 133.426 46.9467 133.426 59.696C133.426 72.4453 143.751 82.7806 156.487 82.7806Z" fill="#0A78CD"/>
<path d="M156.487 64.282C164.12 64.282 170.308 58.0877 170.308 50.4467C170.308 42.8056 164.12 36.6113 156.487 36.6113C148.854 36.6113 142.666 42.8056 142.666 50.4467C142.666 58.0877 148.854 64.282 156.487 64.282Z" fill="white"/>
<path d="M15.3656 150.072C13.7956 151.541 11.9682 152.288 9.31716 152.288C6.07417 152.288 3.96365 151 2.54806 149.299C0.231642 146.543 0 142.704 0 134.408C0 126.112 0.25738 122.247 2.54806 119.516C3.96365 117.79 6.07417 116.527 9.31716 116.527C11.9682 116.527 13.8728 117.3 15.4685 118.795C17.2445 120.418 18.171 123.071 18.274 126.163H12.7661C12.7146 124.875 12.5087 123.612 11.9424 122.762C11.4534 121.989 10.6555 121.474 9.3429 121.474C8.03026 121.474 7.23238 122.015 6.74336 122.814C5.66236 124.488 5.50794 128.018 5.50794 134.408C5.50794 140.797 5.66236 144.353 6.74336 146.001C7.23238 146.8 8.03026 147.341 9.3429 147.341C10.6555 147.341 11.4534 146.852 11.9424 146.053C12.5344 145.151 12.7403 143.889 12.7661 142.601H18.274C18.171 145.744 17.1415 148.449 15.3656 150.072Z" fill="white"/>
<path d="M30.5253 151.876V137.113L24.6313 151.876H20.0242V125.957H25.2232V140.72L31.1173 125.957H35.7244V151.876H30.5253Z" fill="white"/>
<path d="M48.4647 151.876V140.952H43.6002V151.876H38.4011V125.957H43.6002V136.34H48.4647V125.957H53.6638V151.876H48.4647Z" fill="white"/>
<path d="M60.7417 140.41C60.7417 143.373 60.8961 145.563 61.5396 146.568C61.9257 147.161 62.6206 147.599 63.5472 147.599C64.3708 147.599 65.0657 147.264 65.5032 146.62C65.9408 146.079 66.1467 145.151 66.1467 144.249H71.3458C71.2428 146.568 70.7023 148.526 69.1323 150.201C67.7682 151.669 65.9408 152.262 63.5214 152.262C61.102 152.262 59.4805 151.772 57.9105 150.149C55.7485 147.882 55.4911 143.605 55.4911 138.89C55.4911 134.176 55.7485 129.899 57.9105 127.631C59.4805 126.008 61.3594 125.57 63.4699 125.57C65.5805 125.57 67.4079 126.008 69.0293 127.631C71.0884 129.693 71.4487 134.227 71.4487 140.41H60.7417ZM65.5032 131.213C65.0657 130.569 64.4737 130.182 63.4957 130.182C62.5176 130.182 61.9257 130.569 61.4881 131.213C60.9476 131.986 60.7417 133.531 60.7417 136.572H66.2496C66.2496 133.531 66.0437 131.986 65.5032 131.213Z" fill="white"/>
<path d="M87.1489 150.253C85.965 151.721 84.5494 152.262 82.5933 152.262C81.6667 152.262 80.7144 152.03 79.9937 151.567C79.4532 151.232 78.9127 150.742 78.4752 150.201V160.971H73.2761V125.957H78.295V127.864C78.5267 127.374 79.479 126.575 80.0195 126.241C80.7659 125.803 81.6925 125.545 82.619 125.545C84.5751 125.545 86.0164 126.086 87.1747 127.555C88.8476 129.667 89.0021 133.248 89.0021 138.865C89.0021 144.482 88.8476 148.114 87.1747 150.227L87.1489 150.253ZM82.9279 131.213C82.4903 130.569 81.7954 130.182 81.0233 130.182C80.2769 130.182 79.6849 130.414 79.2473 130.93C78.7583 131.471 78.4495 132.218 78.4495 133.351V144.507C78.4495 145.641 78.7068 146.362 79.2473 146.929C79.6849 147.367 80.2769 147.625 81.0233 147.625C81.8211 147.625 82.4903 147.29 82.9279 146.646C83.6228 145.77 83.7515 143.837 83.7515 138.916C83.7515 133.996 83.5971 132.141 82.9279 131.239V131.213Z" fill="white"/>
<path d="M104.11 130.594H96.0028V151.901H90.8037V125.982H104.11V130.594Z" fill="white"/>
<path d="M115.564 151.876V137.113L109.67 151.876H105.063V125.957H110.262V140.72L116.156 125.957H120.763V151.876H115.564Z" fill="white"/>
<path d="M132.808 151.876V141.982H130.801L127.352 151.876H121.947L126.013 140.9C123.517 139.535 122.77 136.958 122.77 133.918C122.77 128.894 124.598 125.957 130.389 125.957H138.007V151.876H132.808ZM132.808 130.569H130.44C128.381 130.569 127.995 131.986 127.995 133.918C127.995 135.85 128.433 137.371 130.44 137.371H132.808V130.595V130.569Z" fill="white"/>
<path d="M156.847 121.834V151.875H151.339V121.834H145.497V116.861H162.741V121.834H156.847Z" fill="white"/>
<path d="M165.341 140.41C165.341 143.373 165.495 145.563 166.139 146.568C166.525 147.161 167.22 147.599 168.146 147.599C168.97 147.599 169.665 147.264 170.103 146.62C170.54 146.079 170.746 145.151 170.746 144.249H175.945C175.842 146.568 175.302 148.526 173.732 150.201C172.367 151.669 170.54 152.262 168.121 152.262C165.701 152.262 164.08 151.772 162.51 150.149C160.348 147.882 160.09 143.605 160.09 138.89C160.09 134.176 160.348 129.899 162.51 127.631C164.08 126.008 165.959 125.57 168.069 125.57C170.18 125.57 172.007 126.008 173.629 127.631C175.688 129.693 176.022 134.227 176.022 140.41H165.315H165.341ZM170.103 131.213C169.665 130.569 169.073 130.182 168.095 130.182C167.117 130.182 166.525 130.569 166.087 131.213C165.547 131.986 165.341 133.531 165.341 136.572H170.849C170.849 133.531 170.643 131.986 170.103 131.213Z" fill="white"/>
<path d="M187.759 151.875L184.361 143.811L180.964 151.875H175.224L181.324 138.71L175.533 125.982H181.273L184.361 133.84L187.45 125.982H193.241L187.347 138.71L193.55 151.875H187.759Z" fill="white"/>
<path d="M204.128 151.876V140.952H199.264V151.876H194.065V125.957H199.264V136.34H204.128V125.957H209.327V151.876H204.128Z" fill="white"/>
<path d="M225.311 149.505C223.792 151.618 221.682 152.262 219.159 152.262C216.637 152.262 214.552 151.618 213.008 149.505C211.386 147.238 211.18 143.27 211.18 138.89C211.18 134.51 211.386 130.517 213.008 128.276C214.526 126.163 216.637 125.57 219.159 125.57C221.682 125.57 223.766 126.163 225.311 128.276C226.932 130.543 227.138 134.51 227.138 138.89C227.138 143.27 226.932 147.264 225.311 149.505ZM221.193 131.264C220.755 130.569 219.957 130.182 219.185 130.182C218.413 130.182 217.615 130.569 217.177 131.264C216.482 132.449 216.431 135.052 216.431 138.89C216.431 142.729 216.482 145.383 217.177 146.568C217.615 147.264 218.413 147.599 219.185 147.599C219.957 147.599 220.755 147.264 221.193 146.568C221.887 145.383 221.939 142.729 221.939 138.89C221.939 135.052 221.887 132.449 221.193 131.264Z" fill="white"/>
<path d="M239.801 151.876V130.62H235.683V141.184C235.683 149.634 233.186 151.85 228.219 151.85H226.546V147.238H227.344C229.017 147.238 230.69 146.8 230.69 140.411V125.957H245.026V151.876H239.827H239.801Z" fill="white"/>
<path d="M260.983 149.505C259.465 151.618 257.354 152.262 254.832 152.262C252.31 152.262 250.225 151.618 248.681 149.505C247.059 147.238 246.853 143.27 246.853 138.89C246.853 134.51 247.059 130.517 248.681 128.276C250.199 126.163 252.31 125.57 254.832 125.57C257.354 125.57 259.439 126.163 260.983 128.276C262.605 130.543 262.811 134.51 262.811 138.89C262.811 143.27 262.605 147.264 260.983 149.505ZM256.865 131.264C256.428 130.569 255.63 130.182 254.858 130.182C254.086 130.182 253.288 130.569 252.85 131.264C252.155 132.449 252.104 135.052 252.104 138.89C252.104 142.729 252.155 145.383 252.85 146.568C253.288 147.264 254.086 147.599 254.858 147.599C255.63 147.599 256.428 147.264 256.865 146.568C257.56 145.383 257.612 142.729 257.612 138.89C257.612 135.052 257.56 132.449 256.865 131.264Z" fill="white"/>
<path d="M277.945 130.594H269.837V151.901H264.638V125.982H277.945V130.594Z" fill="white"/>
<path d="M289.398 151.876V137.113L283.504 151.876H278.897V125.957H284.096V140.72L289.99 125.957H294.597V151.876H289.398Z" fill="white"/>
<path d="M307.801 151.876V137.113L301.907 151.876H297.3V125.958H302.499V140.72L308.393 125.958H313V151.876H307.801ZM305.15 123.149C301.958 123.149 299.204 121.526 298.999 117.301H302.525C302.679 118.924 303.863 119.568 305.124 119.568C306.385 119.568 307.569 118.924 307.724 117.301H311.25C311.095 121.526 308.29 123.149 305.098 123.149H305.15Z" fill="white"/>
</g>
<defs>
<clipPath id="clip0_2008_192">
<rect width="313" height="161" fill="white"/>
</clipPath>
</defs>
</svg>
