<svg width="389" height="112" viewBox="0 0 389 112" fill="none" xmlns="http://www.w3.org/2000/svg">
<g clip-path="url(#clip0_2008_249)">
<path d="M43.5873 23.3496C50.425 41.6105 39.2624 53.3461 28.1723 65.0818C17.8312 77.0853 8.72229 89.5514 27.0367 112C20.199 93.7392 31.3374 82.0035 42.4517 70.2679C52.7687 58.2644 61.8776 45.7983 43.5873 23.3496Z" fill="#E84241"/>
<path d="M27.0367 0C33.8744 18.2852 22.7118 29.9965 11.6217 41.7322C1.30472 53.7357 -7.82833 66.2261 10.4861 88.6504C3.64838 70.3652 14.7868 58.6539 25.9011 46.9183C36.2422 34.9148 45.327 22.4487 27.0367 0Z" fill="#0AA373"/>
<path d="M309.436 71.9482V109.712H324.972V95.8821H342.272V87.6038H324.972V80.2021H359.306V109.687H374.866V80.2021H389V71.9238H309.436V71.9482Z" fill="white"/>
<path d="M276.456 100.655V94.1053H296.969V85.827H276.456V79.3505H302.768V71.0723H260.896V108.836H303.082V100.655H276.456Z" fill="white"/>
<path d="M198.462 71.9473H155.938V80.2255H169.855V109.711H185.391V80.2255H198.462V71.9473Z" fill="white"/>
<path d="M110.877 71.9473H67.3381V80.2255H81.2551V109.711H96.8151V80.2255H110.877V71.9473Z" fill="white"/>
<path d="M141.659 71.9473H124.891L105.344 109.711H115.516L118.73 103.234H140.668L143.882 109.711H161.205L141.659 71.9473ZM122.595 95.4186L129.844 80.7855L136.778 95.4186H122.62H122.595Z" fill="white"/>
<path d="M240.987 71.9473V90.8168L215.931 71.9473H203.802V109.711H214.506V88.9177L240.214 109.711H251.69V71.9473H240.987Z" fill="white"/>
</g>
<defs>
<clipPath id="clip0_2008_249">
<rect width="389" height="112" fill="white"/>
</clipPath>
</defs>
</svg>
