<svg width="68" height="17" viewBox="0 0 68 17" fill="none" xmlns="http://www.w3.org/2000/svg">
<g clip-path="url(#clip0_2176_245)">
<path d="M42.9895 4.17969H31.3313V6.40917H42.9895V4.17969Z" fill="white"/>
<path d="M18.0078 4.17969H15.5096V16.9992H18.0078V4.17969Z" fill="white"/>
<path d="M38.3053 6.9668H35.8071V16.9994H38.3053V6.9668Z" fill="white"/>
<path d="M54.5437 4.17969H45.0715V6.40917H54.5437V4.17969Z" fill="white"/>
<path fill-rule="evenodd" clip-rule="evenodd" d="M47.5696 6.9668H45.0713V14.7699V16.9993V16.9994H47.5696V16.9993H54.5436V14.7699H47.5696V11.7971H54.5436V9.56769H47.5696V6.9668Z" fill="white"/>
<path fill-rule="evenodd" clip-rule="evenodd" d="M13.4277 4.17969H10.5132L5.91064 13.8205L7.20509 16.9727L13.4277 4.17969Z" fill="#FE701E"/>
<path fill-rule="evenodd" clip-rule="evenodd" d="M0 0L7.19763 9.73722L6.37345 11.3133L5.54927 12.8895L0 0Z" fill="#FE701E"/>
<path fill-rule="evenodd" clip-rule="evenodd" d="M59.1237 4.17969H56.6255V16.9992H59.1237V4.17969ZM59.7482 9.19634V10.6825V10.6827V12.1688L64.5885 16.9994H67.9714L61.6219 10.6826L66.2019 4.18H63.3914L59.7482 9.19634Z" fill="white"/>
<path fill-rule="evenodd" clip-rule="evenodd" d="M27.2029 12.4174L27.1428 12.3567L31.3119 16.9596L28.5677 16.9753L24.559 12.5154H22.5878V16.9992H20.0896L20.1103 11.0165L20.0907 6.87364H22.4837V10.4613H24.0214H25.5072C26.965 10.4613 28.0041 9.77903 28.0041 8.36704C28.0041 6.95488 26.965 6.26994 25.5072 6.26994H20.0907L20.0896 4.17972L26.2829 4.17969C28.665 4.17969 30.5379 6.01009 30.5379 8.32467C30.5379 10.3287 29.1375 12.0039 27.2029 12.4174Z" fill="white"/>
</g>
<defs>
<clipPath id="clip0_2176_245">
<rect width="68" height="17" fill="white"/>
</clipPath>
</defs>
</svg>
